<svg width="16" height="16" viewBox="0 0 16 16" fill="none" xmlns="http://www.w3.org/2000/svg">
<path d="M10.3815 4.2062C10.3815 4.69519 10.5757 5.16415 10.9215 5.50992C11.2673 5.85569 11.7363 6.04995 12.2252 6.04995C12.7142 6.04995 13.1832 5.85569 13.5289 5.50992C13.8747 5.16415 14.069 4.69519 14.069 4.2062C14.069 3.7172 13.8747 3.24824 13.5289 2.90247C13.1832 2.5567 12.7142 2.36245 12.2252 2.36245C11.7363 2.36245 11.2673 2.5567 10.9215 2.90247C10.5757 3.24824 10.3815 3.7172 10.3815 4.2062Z" fill="#FF3B30" stroke="#FF3B30" stroke-width="1.25" stroke-linecap="round" stroke-linejoin="round"/>
<path d="M6.23303 13.9922C6.3111 14.2581 6.47319 14.4916 6.69505 14.6577C6.91688 14.8238 7.18662 14.9136 7.46374 14.9136C7.74085 14.9136 8.01059 14.8238 8.23239 14.6577C8.45426 14.4916 8.61639 14.2581 8.69444 13.9922" stroke="#2B3674" stroke-width="1.25" stroke-linecap="round" stroke-linejoin="round"/>
<path d="M7.46228 2.46875V1.08594" stroke="#2B3674" stroke-width="1.25" stroke-linecap="round" stroke-linejoin="round"/>
<path d="M12.0858 7.97603C12.2019 11.5136 12.9935 12.1484 12.9935 12.1484H1.93103C1.93103 12.1484 2.85291 10.9709 2.85291 7.07813C2.85359 6.35598 3.02378 5.64411 3.34976 4.99976C3.67574 4.35542 4.14842 3.79658 4.72976 3.36822C5.31111 2.93987 5.98488 2.65396 6.69688 2.53348C7.40887 2.41301 8.13918 2.46135 8.82911 2.67461" stroke="#2B3674" stroke-width="1.25" stroke-linecap="round" stroke-linejoin="round"/>
</svg>
