<svg width="16" height="17" viewBox="0 0 16 17" fill="none" xmlns="http://www.w3.org/2000/svg">
<g clip-path="url(#clip0_114_1439)">
<path d="M8 9.25C8.41421 9.25 8.75 8.91421 8.75 8.5C8.75 8.08579 8.41421 7.75 8 7.75C7.58579 7.75 7.25 8.08579 7.25 8.5C7.25 8.91421 7.58579 9.25 8 9.25Z" fill="#2B3674"/>
<path d="M8 5C8.41421 5 8.75 4.66421 8.75 4.25C8.75 3.83579 8.41421 3.5 8 3.5C7.58579 3.5 7.25 3.83579 7.25 4.25C7.25 4.66421 7.58579 5 8 5Z" fill="#2B3674"/>
<path d="M8 13.5C8.41421 13.5 8.75 13.1642 8.75 12.75C8.75 12.3358 8.41421 12 8 12C7.58579 12 7.25 12.3358 7.25 12.75C7.25 13.1642 7.58579 13.5 8 13.5Z" fill="#2B3674"/>
</g>
<defs>
<clipPath id="clip0_114_1439">
<rect width="16" height="16" fill="white" transform="translate(0 0.5)"/>
</clipPath>
</defs>
</svg>
