<svg width="16" height="16" viewBox="0 0 16 16" fill="none" xmlns="http://www.w3.org/2000/svg">
<g clip-path="url(#clip0_114_1521)">
<path d="M12.4558 11.0422H14.2995C14.6683 11.0422 14.9141 10.7964 14.9141 10.4276V1.70052C14.9141 1.33177 14.6683 1.08594 14.2995 1.08594H12.4558C12.087 1.08594 11.8412 1.33177 11.8412 1.70052V10.4276C11.8412 10.7964 12.087 11.0422 12.4558 11.0422Z" stroke="#2B3674" stroke-width="1.25" stroke-linecap="round" stroke-linejoin="round"/>
<path d="M7.07808 11.0422H8.92183C9.29058 11.0422 9.53642 10.7963 9.53642 10.4276V4.77343C9.53642 4.40468 9.29058 4.15884 8.92183 4.15884H7.07808C6.70933 4.15884 6.4635 4.40468 6.4635 4.77343V10.4276C6.4635 10.7963 6.70933 11.0422 7.07808 11.0422Z" stroke="#2B3674" stroke-width="1.25" stroke-linecap="round" stroke-linejoin="round"/>
<path d="M7.07808 14.9141H8.92183C9.29058 14.9141 9.53642 14.6682 9.53642 14.2995V13.6849C9.53642 13.3161 9.29058 13.0703 8.92183 13.0703H7.07808C6.70933 13.0703 6.4635 13.3161 6.4635 13.6849V14.2995C6.4635 14.6682 6.70933 14.9141 7.07808 14.9141Z" stroke="#2B3674" stroke-width="1.25" stroke-linecap="round" stroke-linejoin="round"/>
<path d="M1.70052 11.0422H3.54427C3.91302 11.0422 4.15885 10.7964 4.15885 10.4276V7.84636C4.15885 7.47761 3.91302 7.23178 3.54427 7.23178H1.70052C1.33177 7.23178 1.08594 7.47761 1.08594 7.84636V10.4276C1.08594 10.7964 1.33177 11.0422 1.70052 11.0422Z" stroke="#2B3674" stroke-width="1.25" stroke-linecap="round" stroke-linejoin="round"/>
<path d="M1.70052 14.9141H3.54427C3.91302 14.9141 4.15885 14.6682 4.15885 14.2995V13.6849C4.15885 13.3161 3.91302 13.0703 3.54427 13.0703H1.70052C1.33177 13.0703 1.08594 13.3161 1.08594 13.6849V14.2995C1.08594 14.6682 1.33177 14.9141 1.70052 14.9141Z" stroke="#2B3674" stroke-width="1.25" stroke-linecap="round" stroke-linejoin="round"/>
<path d="M11.8412 14.9141H14.9141" stroke="#2B3674" stroke-width="1.25" stroke-linecap="round" stroke-linejoin="round"/>
</g>
<defs>
<clipPath id="clip0_114_1521">
<rect width="16" height="16" fill="white"/>
</clipPath>
</defs>
</svg>
