<svg width="12" height="13" viewBox="0 0 12 13" fill="none" xmlns="http://www.w3.org/2000/svg">
<path d="M11.2734 6.14844V9.3125H8.10938" stroke="#F51D1D" stroke-width="1.07143" stroke-linecap="round" stroke-linejoin="round"/>
<path d="M11.2734 9.3125L7.55203 5.59109C7.48673 5.52575 7.4092 5.47393 7.32384 5.43856C7.23853 5.4032 7.14708 5.38499 7.05469 5.38499C6.9623 5.38499 6.87084 5.4032 6.78553 5.43856C6.70017 5.47393 6.62264 5.52575 6.55734 5.59109L5.09109 7.05734C5.0258 7.12269 4.94827 7.17453 4.86293 7.20987C4.77759 7.24522 4.68612 7.26345 4.59375 7.26345C4.50138 7.26345 4.40991 7.24522 4.32457 7.20987C4.23923 7.17453 4.1617 7.12269 4.09641 7.05734L0.726562 3.6875" stroke="#F51D1D" stroke-width="1.07143" stroke-linecap="round" stroke-linejoin="round"/>
</svg>
