<svg width="12" height="13" viewBox="0 0 12 13" fill="none" xmlns="http://www.w3.org/2000/svg">
<path d="M11.2734 6.85156V3.6875H8.10938" stroke="#058F3F" stroke-width="1.07143" stroke-linecap="round" stroke-linejoin="round"/>
<path d="M11.2734 3.6875L7.55203 7.40891C7.48673 7.47425 7.4092 7.52607 7.32384 7.56144C7.23853 7.5968 7.14708 7.61501 7.05469 7.61501C6.9623 7.61501 6.87084 7.5968 6.78553 7.56144C6.70017 7.52607 6.62264 7.47425 6.55734 7.40891L5.09109 5.94266C5.0258 5.87731 4.94827 5.82547 4.86293 5.79013C4.77759 5.75478 4.68612 5.73655 4.59375 5.73655C4.50138 5.73655 4.40991 5.75478 4.32457 5.79013C4.23923 5.82547 4.1617 5.87731 4.09641 5.94266L0.726562 9.3125" stroke="#058F3F" stroke-width="1.07143" stroke-linecap="round" stroke-linejoin="round"/>
</svg>
