<svg width="24" height="24" viewBox="0 0 24 24" fill="none" xmlns="http://www.w3.org/2000/svg">
<g clip-path="url(#clip0_114_2043)">
<path d="M18.5 16.5H11.5L7.5 19.5V16.5H5.5C5.23479 16.5 4.98043 16.3947 4.79289 16.2071C4.60536 16.0196 4.5 15.7652 4.5 15.5V5.5C4.5 5.23479 4.60536 4.98043 4.79289 4.79289C4.98043 4.60536 5.23479 4.5 5.5 4.5H18.5C18.7652 4.5 19.0196 4.60536 19.2071 4.79289C19.3947 4.98043 19.5 5.23479 19.5 5.5V15.5C19.5 15.7652 19.3947 16.0196 19.2071 16.2071C19.0196 16.3947 18.7652 16.5 18.5 16.5Z" stroke="#2B3674" stroke-width="1.25" stroke-linecap="round" stroke-linejoin="round"/>
<path d="M10.5 8.50005C10.5001 8.1334 10.6009 7.77383 10.7915 7.46062C10.9822 7.14742 11.2552 6.89265 11.5809 6.72415C11.9065 6.55565 12.2722 6.4799 12.6379 6.50519C13.0037 6.53048 13.3555 6.65583 13.6549 6.86755C13.9542 7.07926 14.1896 7.36919 14.3353 7.70564C14.481 8.04209 14.5314 8.41213 14.481 8.77529C14.4306 9.13846 14.2814 9.48079 14.0496 9.76487C13.8178 10.0489 13.5123 10.2638 13.1667 10.386C12.9717 10.455 12.8029 10.5826 12.6835 10.7515C12.5641 10.9203 12.5 11.122 12.5 11.3288V11.5001" stroke="#2B3674" stroke-width="1.25" stroke-linecap="round" stroke-linejoin="round"/>
<path d="M12.5 14C12.3619 14 12.25 13.8881 12.25 13.75C12.25 13.6119 12.3619 13.5 12.5 13.5" stroke="#2B3674" stroke-width="1.25"/>
<path d="M12.5 14C12.6381 14 12.75 13.8881 12.75 13.75C12.75 13.6119 12.6381 13.5 12.5 13.5" stroke="#2B3674" stroke-width="1.25"/>
</g>
<defs>
<clipPath id="clip0_114_2043">
<rect width="16" height="16" fill="white" transform="translate(4 4)"/>
</clipPath>
</defs>
</svg>
