<svg width="24" height="24" viewBox="0 0 24 24" fill="none" xmlns="http://www.w3.org/2000/svg">
<g clip-path="url(#clip0_114_2008)">
<path d="M11.6609 3.41938C11.6926 3.3566 11.741 3.30383 11.8009 3.26696C11.8608 3.23009 11.9297 3.21057 12 3.21057C12.0703 3.21057 12.1392 3.23009 12.1991 3.26696C12.259 3.30383 12.3074 3.3566 12.339 3.41938L13.1273 5.00844C13.1546 5.06291 13.1946 5.10998 13.244 5.14562C13.2933 5.18127 13.3507 5.20443 13.4109 5.21313L15.1797 5.4686C15.2487 5.4783 15.3138 5.50705 15.3675 5.55162C15.4212 5.59619 15.4613 5.65482 15.4836 5.72094C15.5054 5.78681 15.5081 5.85751 15.4913 5.92485C15.4746 5.99219 15.4391 6.05341 15.389 6.10141L14.1094 7.34673C14.0662 7.38842 14.0337 7.44002 14.015 7.49706C13.9962 7.55409 13.9915 7.61485 14.0015 7.67407L14.3047 9.42954C14.3162 9.49822 14.3079 9.56873 14.2812 9.63298C14.2544 9.69724 14.21 9.75264 14.1531 9.79282C14.0958 9.8337 14.0283 9.85791 13.9582 9.86273C13.8879 9.86756 13.8178 9.85282 13.7554 9.82016L12.1765 8.99673C12.1222 8.96786 12.0615 8.95277 12 8.95277C11.9384 8.95277 11.8778 8.96786 11.8234 8.99673L10.2484 9.82016C10.1861 9.85282 10.1159 9.86756 10.0457 9.86273C9.97553 9.85791 9.90804 9.8337 9.85077 9.79282C9.79391 9.75264 9.74953 9.69724 9.72272 9.63298C9.69592 9.56873 9.68777 9.49822 9.69921 9.42954L10.0023 7.67407C10.0123 7.61485 10.0077 7.55409 9.98892 7.49706C9.97014 7.44002 9.93774 7.38842 9.89452 7.34673L8.61092 6.10141C8.56083 6.05341 8.52537 5.99219 8.50864 5.92485C8.49191 5.85751 8.4946 5.78681 8.51639 5.72094C8.53864 5.65482 8.57884 5.59619 8.63252 5.55162C8.68619 5.50705 8.75121 5.4783 8.8203 5.4686L10.589 5.21313C10.6494 5.20443 10.7066 5.18127 10.756 5.14562C10.8054 5.10998 10.8454 5.06291 10.8726 5.00844L11.6609 3.41938Z" stroke="#2B3674" stroke-width="1.25" stroke-linecap="round" stroke-linejoin="round"/>
<path d="M7.56411 10.5157L6.88989 10.1642C6.83526 10.1357 6.77455 10.1208 6.71294 10.1208C6.65133 10.1208 6.59062 10.1357 6.53598 10.1642L4.96176 10.9845C4.89932 11.017 4.8291 11.0318 4.75882 11.0271C4.68854 11.0224 4.6209 10.9985 4.56333 10.9579C4.50648 10.9176 4.46217 10.862 4.43549 10.7976C4.40882 10.7332 4.40087 10.6626 4.41255 10.5938L4.71489 8.83917C4.72511 8.78002 4.72069 8.71927 4.70204 8.66221C4.68338 8.60515 4.65105 8.55353 4.60786 8.51183L3.32348 7.26886C3.27368 7.22067 3.23847 7.15941 3.22189 7.09211C3.20531 7.02481 3.20803 6.95421 3.22973 6.88839C3.25197 6.82227 3.29218 6.76363 3.34586 6.71907C3.39953 6.6745 3.46455 6.64575 3.53364 6.63605L5.30161 6.38058C5.36203 6.372 5.41947 6.34889 5.469 6.31324C5.51852 6.2776 5.55867 6.23046 5.58598 6.17589L6.37505 4.58683C6.40658 4.52397 6.45501 4.47115 6.5149 4.43431C6.5748 4.39746 6.64379 4.37804 6.71411 4.37824" stroke="#2B3674" stroke-width="1.25" stroke-linecap="round" stroke-linejoin="round"/>
<path d="M16.4359 10.5157L17.1101 10.1634C17.1647 10.1349 17.2254 10.12 17.2871 10.12C17.3487 10.12 17.4094 10.1349 17.464 10.1634L19.0383 10.9845C19.1007 11.017 19.1709 11.0318 19.2412 11.0271C19.3115 11.0224 19.3791 10.9985 19.4367 10.9579C19.4936 10.9176 19.5379 10.862 19.5645 10.7976C19.5912 10.7332 19.5992 10.6626 19.5875 10.5938L19.2851 8.83917C19.2749 8.78002 19.2793 8.71927 19.298 8.66221C19.3166 8.60515 19.349 8.55353 19.3922 8.51183L20.6765 7.26574C20.7264 7.21754 20.7615 7.15628 20.7781 7.08899C20.7947 7.0217 20.792 6.95109 20.7703 6.88527C20.748 6.81914 20.7079 6.76051 20.6542 6.71595C20.6005 6.67138 20.5354 6.64263 20.4664 6.63292L18.6984 6.37745C18.638 6.36888 18.5806 6.34577 18.5311 6.31012C18.4815 6.27447 18.4414 6.22734 18.414 6.17277L17.625 4.58683C17.5935 4.52397 17.5451 4.47115 17.4851 4.43431C17.4252 4.39746 17.3562 4.37804 17.2859 4.37824" stroke="#2B3674" stroke-width="1.25" stroke-linecap="round" stroke-linejoin="round"/>
<path d="M8.77893 14.6928V15.4741C8.80908 16.3734 8.57553 17.262 8.10706 18.0303" stroke="#2B3674" stroke-width="1.25" stroke-linecap="round" stroke-linejoin="round"/>
<path d="M15.2219 14.6928V15.4741C15.1915 16.3734 15.4247 17.2619 15.893 18.0303" stroke="#2B3674" stroke-width="1.25" stroke-linecap="round" stroke-linejoin="round"/>
<path d="M8.78748 14.8634C9.39773 14.8592 10 14.7247 10.5541 14.4688C11.1081 14.2129 11.6011 13.8416 12 13.3798C12.3988 13.8418 12.8917 14.2132 13.4458 14.4692C13.9998 14.7252 14.6022 14.8598 15.2125 14.8641" stroke="#2B3674" stroke-width="1.25" stroke-linecap="round" stroke-linejoin="round"/>
<path d="M8.77734 14.6062C8.77734 15.4609 9.11687 16.2806 9.72123 16.885C10.3256 17.4893 11.1453 17.8288 12 17.8288C12.8547 17.8288 13.6744 17.4893 14.2788 16.885C14.8831 16.2806 15.2227 15.4609 15.2227 14.6062C15.2227 13.7515 14.8831 12.9318 14.2788 12.3274C13.6744 11.723 12.8547 11.3835 12 11.3835C11.1453 11.3835 10.3256 11.723 9.72123 12.3274C9.11687 12.9318 8.77734 13.7515 8.77734 14.6062Z" stroke="#2B3674" stroke-width="1.25" stroke-linecap="round" stroke-linejoin="round"/>
<path d="M15.9429 20.7892C15.3997 20.1727 14.7203 19.6912 13.9586 19.383L12 20.7587L10.0414 19.3861C9.28378 19.6919 8.60726 20.1689 8.06482 20.7798" stroke="#2B3674" stroke-width="1.25" stroke-linecap="round" stroke-linejoin="round"/>
</g>
<defs>
<clipPath id="clip0_114_2008">
<rect width="20" height="20" fill="white" transform="translate(2 2)"/>
</clipPath>
</defs>
</svg>
