<svg width="24" height="24" viewBox="0 0 24 24" fill="none" xmlns="http://www.w3.org/2000/svg">
<g clip-path="url(#clip0_114_2022)">
<path d="M19.6172 17.2734H11.4141L6.72656 20.7891V17.2734H4.38281C4.07202 17.2734 3.77394 17.15 3.55417 16.9302C3.3344 16.7105 3.21094 16.4123 3.21094 16.1016V4.38281C3.21094 4.07202 3.3344 3.77394 3.55417 3.55417C3.77394 3.3344 4.07202 3.21094 4.38281 3.21094H19.6172C19.928 3.21094 20.2261 3.3344 20.4459 3.55417C20.6656 3.77394 20.7891 4.07202 20.7891 4.38281V16.1016C20.7891 16.4123 20.6656 16.7105 20.4459 16.9302C20.2261 17.15 19.928 17.2734 19.6172 17.2734Z" stroke="#2B3674" stroke-width="1.25" stroke-linecap="round" stroke-linejoin="round"/>
<path d="M12 10.5352C11.8382 10.5352 11.707 10.404 11.707 10.2422C11.707 10.0804 11.8382 9.94922 12 9.94922" stroke="#2B3674" stroke-width="1.25"/>
<path d="M12 10.5352C12.1618 10.5352 12.293 10.404 12.293 10.2422C12.293 10.0804 12.1618 9.94922 12 9.94922" stroke="#2B3674" stroke-width="1.25"/>
<path d="M8.48438 10.5352C8.32257 10.5352 8.19141 10.404 8.19141 10.2422C8.19141 10.0804 8.32257 9.94922 8.48438 9.94922" stroke="#2B3674" stroke-width="1.25"/>
<path d="M8.48438 10.5352C8.64618 10.5352 8.77734 10.404 8.77734 10.2422C8.77734 10.0804 8.64618 9.94922 8.48438 9.94922" stroke="#2B3674" stroke-width="1.25"/>
<path d="M15.5156 10.5352C15.3538 10.5352 15.2227 10.404 15.2227 10.2422C15.2227 10.0804 15.3538 9.94922 15.5156 9.94922" stroke="#2B3674" stroke-width="1.25"/>
<path d="M15.5156 10.5352C15.6774 10.5352 15.8086 10.404 15.8086 10.2422C15.8086 10.0804 15.6774 9.94922 15.5156 9.94922" stroke="#2B3674" stroke-width="1.25"/>
</g>
<defs>
<clipPath id="clip0_114_2022">
<rect width="20" height="20" fill="white" transform="translate(2 2)"/>
</clipPath>
</defs>
</svg>
