<svg width="16" height="16" viewBox="0 0 16 16" fill="none" xmlns="http://www.w3.org/2000/svg">
<path d="M4.66669 12C3.4474 12.2745 2.66669 12.6962 2.66669 13.1691C2.66669 13.9962 5.0545 14.6667 8.00002 14.6667C10.9456 14.6667 13.3334 13.9962 13.3334 13.1691C13.3334 12.6962 12.5526 12.2745 11.3334 12" stroke="white" stroke-width="1.2" stroke-linecap="round"/>
<path d="M9.66665 5.99998C9.66665 6.92045 8.92045 7.66665 7.99998 7.66665C7.07951 7.66665 6.33331 6.92045 6.33331 5.99998C6.33331 5.07951 7.07951 4.33331 7.99998 4.33331C8.92045 4.33331 9.66665 5.07951 9.66665 5.99998Z" stroke="white" stroke-width="1.2"/>
<path d="M8.83825 11.6624C8.61338 11.8789 8.31285 12 8.00011 12C7.68731 12 7.38678 11.8789 7.16191 11.6624C5.10285 9.66718 2.34344 7.43831 3.68912 4.20247C4.41671 2.45286 6.16327 1.33331 8.00011 1.33331C9.83691 1.33331 11.5834 2.45287 12.311 4.20247C13.655 7.43425 10.9024 9.67405 8.83825 11.6624Z" stroke="white" stroke-width="1.2"/>
</svg>
