<svg width="76" height="30" viewBox="0 0 76 30" fill="none" xmlns="http://www.w3.org/2000/svg">
<path d="M72.3179 21.7288C71.5522 21.7288 70.8653 21.5922 70.2573 21.3189C69.6492 21.0342 69.1651 20.6528 68.8047 20.1745C68.4557 19.6963 68.2642 19.1668 68.2305 18.5861H70.612C70.657 18.9504 70.8316 19.2522 71.1356 19.4913C71.4509 19.7304 71.8393 19.85 72.301 19.85C72.7514 19.85 73.1005 19.7589 73.3482 19.5767C73.6072 19.3945 73.7367 19.1611 73.7367 18.8764C73.7367 18.569 73.579 18.3412 73.2637 18.1932C72.9597 18.0338 72.4699 17.863 71.7943 17.6808C71.0962 17.51 70.5219 17.3335 70.0715 17.1513C69.6324 16.9691 69.2495 16.6902 68.923 16.3144C68.6077 15.9386 68.45 15.4319 68.45 14.7942C68.45 14.2704 68.5964 13.7922 68.8892 13.3595C69.1932 12.9268 69.6211 12.5852 70.1728 12.3347C70.7358 12.0842 71.3946 11.9589 72.149 11.9589C73.2637 11.9589 74.1533 12.2436 74.8176 12.8129C75.482 13.3709 75.8479 14.1281 75.9155 15.0846H73.6522C73.6184 14.7088 73.4608 14.4128 73.1793 14.1964C72.909 13.9687 72.5431 13.8548 72.0814 13.8548C71.6535 13.8548 71.3214 13.9345 71.0849 14.0939C70.8597 14.2534 70.7471 14.4754 70.7471 14.7601C70.7471 15.0789 70.9047 15.3237 71.22 15.4945C71.5353 15.6539 72.0251 15.8191 72.6895 15.9899C73.3651 16.1607 73.9225 16.3372 74.3616 16.5194C74.8008 16.7015 75.178 16.9862 75.4932 17.3734C75.8198 17.7491 75.9887 18.2502 76 18.8764C76 19.423 75.8479 19.9126 75.5439 20.3453C75.2512 20.778 74.8233 21.1196 74.2603 21.3702C73.7085 21.6093 73.0611 21.7288 72.3179 21.7288Z" fill="#2B3674"/>
<path d="M67.0112 16.6389C67.0112 16.9805 66.9887 17.288 66.9436 17.5612H60.1031C60.1594 18.2445 60.3959 18.7796 60.8125 19.1668C61.2291 19.5539 61.7415 19.7475 62.3495 19.7475C63.2278 19.7475 63.8527 19.3661 64.2243 18.6031H66.7747C66.5045 19.5141 65.9865 20.2656 65.2208 20.8577C64.4552 21.4385 63.5149 21.7288 62.4002 21.7288C61.4994 21.7288 60.6886 21.5296 59.968 21.131C59.2586 20.7211 58.7012 20.1461 58.2959 19.4059C57.9018 18.6658 57.7047 17.8118 57.7047 16.8439C57.7047 15.8646 57.9018 15.0049 58.2959 14.2648C58.69 13.5246 59.2417 12.9553 59.9511 12.5567C60.6605 12.1582 61.4769 11.9589 62.4002 11.9589C63.2897 11.9589 64.0836 12.1525 64.7817 12.5396C65.4911 12.9268 66.0372 13.4791 66.42 14.1964C66.8141 14.9024 67.0112 15.7166 67.0112 16.6389ZM64.5621 15.9557C64.5509 15.3408 64.3313 14.8512 63.9034 14.4868C63.4755 14.111 62.9519 13.9231 62.3326 13.9231C61.7471 13.9231 61.2516 14.1053 60.8463 14.4697C60.4522 14.8227 60.2101 15.318 60.12 15.9557H64.5621Z" fill="#2B3674"/>
<path d="M55.9766 8.9357V21.5751H53.6119V8.9357H55.9766Z" fill="#2B3674"/>
<path d="M41.5568 16.8097C41.5568 15.8532 41.7426 15.0049 42.1141 14.2648C42.497 13.5246 43.0093 12.9553 43.6511 12.5567C44.3042 12.1582 45.0305 11.9589 45.83 11.9589C46.5281 11.9589 47.1362 12.1012 47.6541 12.3859C48.1833 12.6706 48.6056 13.0293 48.9209 13.462V12.1126H51.3024V21.5751H48.9209V20.1916C48.6169 20.6357 48.1946 21.0058 47.6541 21.3018C47.1249 21.5865 46.5112 21.7288 45.8131 21.7288C45.0249 21.7288 44.3042 21.5239 43.6511 21.1139C43.0093 20.704 42.497 20.129 42.1141 19.3888C41.7426 18.6373 41.5568 17.7776 41.5568 16.8097ZM48.9209 16.8439C48.9209 16.2631 48.8083 15.7678 48.5831 15.3579C48.3579 14.9366 48.0539 14.6177 47.671 14.4014C47.2882 14.1737 46.8772 14.0598 46.438 14.0598C45.9989 14.0598 45.5935 14.168 45.2219 14.3843C44.8503 14.6007 44.5463 14.9195 44.3099 15.3408C44.0847 15.7507 43.9721 16.2404 43.9721 16.8097C43.9721 17.3791 44.0847 17.8801 44.3099 18.3128C44.5463 18.7341 44.8503 19.0586 45.2219 19.2864C45.6048 19.5141 46.0101 19.628 46.438 19.628C46.8772 19.628 47.2882 19.5198 47.671 19.3034C48.0539 19.0757 48.3579 18.7569 48.5831 18.3469C48.8083 17.9256 48.9209 17.4246 48.9209 16.8439Z" fill="#2B3674"/>
<path d="M35.9429 21.6947C35.1209 21.6947 34.3778 21.5523 33.7134 21.2677C33.0603 20.983 32.5424 20.5731 32.1595 20.0379C31.7767 19.5027 31.5796 18.8707 31.5684 18.142H34.1019C34.1357 18.6316 34.3046 19.0188 34.6086 19.3034C34.9239 19.5881 35.3518 19.7304 35.8922 19.7304C36.444 19.7304 36.8775 19.5995 37.1928 19.3376C37.5081 19.0643 37.6657 18.7113 37.6657 18.2786C37.6657 17.9256 37.5587 17.6353 37.3448 17.4075C37.1309 17.1798 36.8606 17.0033 36.5341 16.878C36.2188 16.7414 35.7796 16.5934 35.2166 16.4339C34.4509 16.2062 33.826 15.9842 33.3418 15.7678C32.8689 15.5401 32.4579 15.2042 32.1088 14.7601C31.771 14.3046 31.6021 13.7011 31.6021 12.9496C31.6021 12.2436 31.7767 11.6287 32.1257 11.1049C32.4748 10.5811 32.9646 10.1826 33.5952 9.90928C34.2257 9.6246 34.9464 9.48227 35.7571 9.48227C36.9732 9.48227 37.9585 9.78402 38.7129 10.3875C39.4786 10.9796 39.9008 11.8109 39.9797 12.8812H37.3786C37.3561 12.4713 37.1815 12.1354 36.855 11.8735C36.5397 11.6002 36.1174 11.4636 35.5882 11.4636C35.1266 11.4636 34.755 11.5831 34.4735 11.8223C34.2032 12.0614 34.0681 12.4087 34.0681 12.8642C34.0681 13.183 34.1694 13.4506 34.3721 13.6669C34.5861 13.8719 34.8451 14.0427 35.1491 14.1793C35.4644 14.3046 35.9035 14.4526 36.4665 14.6234C37.2322 14.8512 37.8571 15.0789 38.3413 15.3066C38.8255 15.5344 39.2421 15.876 39.5912 16.3315C39.9403 16.7869 40.1148 17.3847 40.1148 18.1249C40.1148 18.7626 39.9515 19.3547 39.625 19.9012C39.2984 20.4478 38.8199 20.8862 38.1893 21.2164C37.5587 21.5353 36.8099 21.6947 35.9429 21.6947Z" fill="#2B3674"/>
<mask id="mask0_114_1935" style="mask-type:alpha" maskUnits="userSpaceOnUse" x="0" y="0" width="30" height="30">
<rect x="29.6661" y="30" width="29.6661" height="30" transform="rotate(-180 29.6661 30)" fill="#D9D9D9"/>
</mask>
<g mask="url(#mask0_114_1935)">
<path d="M15.6211 4.25281C16.7301 4.25281 17.6722 4.64479 18.4474 5.42875C19.2227 6.21271 19.6103 7.16781 19.6103 8.29406L16.7982 8.29406C16.7982 7.93989 16.6847 7.65177 16.4577 7.42969C16.2304 7.2076 15.9516 7.09656 15.6211 7.09656C15.2907 7.09656 15.0118 7.2126 14.7846 7.44469C14.5576 7.67677 14.4441 7.95989 14.4441 8.29406C14.4441 8.62843 14.5576 8.91042 14.7846 9.14C15.0118 9.36958 15.2907 9.48437 15.6211 9.48437L27.3049 9.48438L27.3049 12.3281L15.6211 12.3281C14.5122 12.3281 13.57 11.9374 12.7948 11.1559C12.0196 10.3745 11.632 9.42052 11.632 8.29406C11.632 7.16781 12.0196 6.21271 12.7948 5.42875C13.5701 4.64479 14.5122 4.25281 15.6211 4.25281ZM27.3049 17.6719L27.3049 20.5156L10.6768 20.5156C10.1609 20.5156 9.73272 20.6877 9.39218 21.0319C9.05184 21.376 8.88167 21.8091 8.88167 22.3309C8.88167 22.8526 9.05184 23.2868 9.39218 23.6334C9.73272 23.9801 10.1609 24.1534 10.6768 24.1534C11.1926 24.1534 11.6208 23.9801 11.9614 23.6334C12.3017 23.2868 12.4719 22.8526 12.4719 22.3309L15.284 22.3309C15.284 23.6647 14.836 24.7758 13.9401 25.6644C13.0441 26.5529 11.9563 26.9972 10.6768 26.9972C9.39723 26.9972 8.30947 26.5529 7.41351 25.6644C6.51756 24.7758 6.06957 23.6647 6.06957 22.3309C6.06957 20.9972 6.51756 19.8872 7.41351 19.0009C8.30947 18.1149 9.39723 17.6719 10.6768 17.6719L27.3049 17.6719ZM6.96852 7.09656L6.96852 9.94031C6.45266 9.94031 6.02446 10.1136 5.68392 10.4603C5.34358 10.807 5.17341 11.2411 5.17341 11.7628C5.17341 12.2847 5.34358 12.7177 5.68392 13.0619C6.02446 13.406 6.45266 13.5781 6.96852 13.5781L27.3049 13.5781L27.3049 16.4219L6.96852 16.4219C5.68897 16.4219 4.60121 15.9764 3.70525 15.0853C2.80929 14.1943 2.36132 13.0868 2.36132 11.7628C2.36132 10.4291 2.8093 9.31791 3.70525 8.42937C4.60121 7.54083 5.68897 7.09656 6.96852 7.09656Z" fill="#414FF4"/>
</g>
</svg>
