<svg width="16" height="17" viewBox="0 0 16 17" fill="none" xmlns="http://www.w3.org/2000/svg">
<g clip-path="url(#clip0_114_1402)">
<path d="M8.96732 8.96094H7.71787C7.52637 8.96106 7.34089 9.0278 7.19326 9.14974C7.04564 9.27167 6.94497 9.44117 6.90865 9.62917C6.87233 9.81718 6.90257 10.012 6.99414 10.1801C7.08571 10.3483 7.23297 10.4794 7.41058 10.5509L8.67908 11.0585C8.8567 11.13 9.00395 11.2611 9.09552 11.4292C9.1871 11.5974 9.21733 11.7922 9.18101 11.9802C9.14469 12.1682 9.04402 12.3377 8.8964 12.4596C8.74877 12.5816 8.56329 12.6483 8.37179 12.6484H7.12357" stroke="#2B3674" stroke-width="1.25" stroke-linecap="round" stroke-linejoin="round"/>
<path d="M8.04553 8.96094V8.5" stroke="#2B3674" stroke-width="1.25" stroke-linecap="round" stroke-linejoin="round"/>
<path d="M8.04553 13.1094V12.6484" stroke="#2B3674" stroke-width="1.25" stroke-linecap="round" stroke-linejoin="round"/>
<path d="M4.81897 6.19531H11.2721" stroke="#2B3674" stroke-width="1.25" stroke-linecap="round" stroke-linejoin="round"/>
<path d="M10.2309 4.21999L11.1147 2.45245C11.1579 2.36594 11.1727 2.26804 11.1572 2.17261C11.1417 2.07717 11.0965 1.98903 11.0282 1.92066C10.9598 1.85229 10.8717 1.80716 10.7762 1.79163C10.6808 1.77611 10.5829 1.791 10.4964 1.83418L9.32868 2.41681C9.22819 2.46696 9.1129 2.47871 9.00436 2.44985C8.89583 2.421 8.80155 2.35352 8.73929 2.26009L8.43016 1.79116C8.38806 1.72803 8.33102 1.67627 8.26416 1.64047C8.19723 1.60467 8.12256 1.58594 8.04666 1.58594C7.97076 1.58594 7.89608 1.60467 7.82916 1.64047C7.76229 1.67627 7.70526 1.72803 7.66316 1.79116L7.35033 2.26009C7.28814 2.35362 7.19386 2.42119 7.08533 2.45005C6.97673 2.47891 6.86137 2.46709 6.76094 2.41681L5.59508 1.83418C5.50855 1.7912 5.4107 1.77646 5.31534 1.79204C5.21999 1.80762 5.13193 1.85274 5.06357 1.92103C4.99521 1.98931 4.95001 2.07733 4.93434 2.17267C4.91866 2.26801 4.9333 2.36587 4.97619 2.45245L5.84276 4.18558" stroke="#2B3674" stroke-width="1.25" stroke-linecap="round" stroke-linejoin="round"/>
<path d="M5.07274 7.57812L3.37649 9.54479C2.9614 10.0843 2.70568 10.7293 2.63828 11.4068C2.57088 12.0842 2.69448 12.7669 2.9951 13.3777C3.29573 13.9885 3.76136 14.5029 4.33927 14.8627C4.91718 15.2224 5.58428 15.4133 6.26503 15.4134H9.82347C10.5042 15.4133 11.1713 15.2224 11.7492 14.8627C12.3272 14.5029 12.7928 13.9885 13.0934 13.3777C13.394 12.7669 13.5176 12.0842 13.4502 11.4068C13.3828 10.7293 13.1271 10.0843 12.712 9.54479L11.0158 7.57812" stroke="#2B3674" stroke-width="1.25" stroke-linecap="round" stroke-linejoin="round"/>
</g>
<defs>
<clipPath id="clip0_114_1402">
<rect width="16" height="16" fill="white" transform="translate(0 0.5)"/>
</clipPath>
</defs>
</svg>
