<svg width="16" height="17" viewBox="0 0 16 17" fill="none" xmlns="http://www.w3.org/2000/svg">
<g clip-path="url(#clip0_1_294)">
<path d="M2.00781 4.8125C2.00781 5.17925 2.1535 5.53097 2.41283 5.7903C2.67216 6.04963 3.02388 6.19531 3.39062 6.19531C3.75737 6.19531 4.10909 6.04963 4.36842 5.7903C4.62775 5.53097 4.77344 5.17925 4.77344 4.8125C4.77344 4.44575 4.62775 4.09403 4.36842 3.8347C4.10909 3.57537 3.75737 3.42969 3.39062 3.42969C3.02388 3.42969 2.67216 3.57537 2.41283 3.8347C2.1535 4.09403 2.00781 4.44575 2.00781 4.8125Z" stroke="#2B3674" stroke-width="1.25" stroke-linecap="round" stroke-linejoin="round"/>
<path d="M3.39062 7.11719C2.77938 7.11719 2.19318 7.36001 1.76097 7.79218C1.32875 8.22442 1.08594 8.81061 1.08594 9.42188V10.8047H2.00781L2.46875 14.4922H4.3125" stroke="#2B3674" stroke-width="1.25" stroke-linecap="round" stroke-linejoin="round"/>
<path d="M11.2266 4.8125C11.2266 5.17925 11.3723 5.53097 11.6316 5.7903C11.8909 6.04963 12.2427 6.19531 12.6094 6.19531C12.9761 6.19531 13.3278 6.04963 13.5872 5.7903C13.8465 5.53097 13.9922 5.17925 13.9922 4.8125C13.9922 4.44575 13.8465 4.09403 13.5872 3.8347C13.3278 3.57537 12.9761 3.42969 12.6094 3.42969C12.2427 3.42969 11.8909 3.57537 11.6316 3.8347C11.3723 4.09403 11.2266 4.44575 11.2266 4.8125Z" stroke="#2B3674" stroke-width="1.25" stroke-linecap="round" stroke-linejoin="round"/>
<path d="M12.6094 7.11719C13.2206 7.11719 13.8068 7.36001 14.2391 7.79218C14.6712 8.22442 14.9141 8.81061 14.9141 9.42188V10.8047H13.9922L13.5312 14.4922H11.6875" stroke="#2B3674" stroke-width="1.25" stroke-linecap="round" stroke-linejoin="round"/>
<path d="M6.15625 3.42969C6.15625 3.91868 6.3505 4.38764 6.69627 4.73342C7.04205 5.07919 7.51104 5.27344 8 5.27344C8.48896 5.27344 8.95795 5.07919 9.30372 4.73342C9.64948 4.38764 9.84375 3.91868 9.84375 3.42969C9.84375 2.94069 9.64948 2.47173 9.30372 2.12596C8.95795 1.78019 8.48896 1.58594 8 1.58594C7.51104 1.58594 7.04205 1.78019 6.69627 2.12596C6.3505 2.47173 6.15625 2.94069 6.15625 3.42969Z" stroke="#2B3674" stroke-width="1.25" stroke-linecap="round" stroke-linejoin="round"/>
<path d="M11.2266 9.42188C11.2266 8.56613 10.8866 7.74548 10.2815 7.14035C9.6764 6.53525 8.85575 6.19531 8 6.19531C7.14425 6.19531 6.32358 6.53525 5.71848 7.14035C5.11338 7.74548 4.77344 8.56613 4.77344 9.42188V10.8047H6.15625L6.61719 15.4141H9.38281L9.84375 10.8047H11.2266V9.42188Z" stroke="#2B3674" stroke-width="1.25" stroke-linecap="round" stroke-linejoin="round"/>
</g>
<defs>
<clipPath id="clip0_1_294">
<rect width="16" height="16" fill="white" transform="translate(0 0.5)"/>
</clipPath>
</defs>
</svg>
