<svg width="24" height="24" viewBox="0 0 24 24" fill="none" xmlns="http://www.w3.org/2000/svg">
<path d="M14.5352 6.74536H9.46487C9.09612 6.74536 8.81956 6.92974 8.63518 7.2063L6.05393 11.5391C5.86956 11.8156 5.86956 12.1844 6.05393 12.4609L8.63518 16.7938C8.81956 17.0703 9.09612 17.2547 9.46487 17.2547H14.5352C14.9039 17.2547 15.1805 17.0703 15.3648 16.7938L17.9461 12.4609C18.1305 12.1844 18.1305 11.8156 17.9461 11.5391L15.3648 7.2063C15.1805 6.92974 14.9039 6.74536 14.5352 6.74536Z" stroke="#2B3674" stroke-width="1.25" stroke-miterlimit="10" stroke-linecap="round" stroke-linejoin="round"/>
<path d="M12.0461 13.6594C12.9625 13.6594 13.7055 12.9164 13.7055 12C13.7055 11.0836 12.9625 10.3406 12.0461 10.3406C11.1297 10.3406 10.3867 11.0836 10.3867 12C10.3867 12.9164 11.1297 13.6594 12.0461 13.6594Z" stroke="#2B3674" stroke-width="1.25" stroke-miterlimit="10" stroke-linecap="round" stroke-linejoin="round"/>
<path d="M12.8354 21.0343L15.3649 16.7937" stroke="#2B3674" stroke-width="1.25" stroke-miterlimit="10" stroke-linecap="round" stroke-linejoin="round"/>
<path d="M3.57983 8.44529L6.05396 12.4609" stroke="#2B3674" stroke-width="1.25" stroke-miterlimit="10" stroke-linecap="round" stroke-linejoin="round"/>
<path d="M19.4902 6.74536H14.5352" stroke="#2B3674" stroke-width="1.25" stroke-miterlimit="10" stroke-linecap="round" stroke-linejoin="round"/>
<path d="M16.7266 2.96558H7.27335C6.90624 2.96558 6.63089 3.14995 6.44734 3.42651L1.76658 11.5391C1.58302 11.8156 1.58302 12.1844 1.76658 12.4609L6.44734 20.5733C6.63089 20.8499 6.90624 21.0343 7.27335 21.0343H16.7266C17.0937 21.0343 17.3691 20.8499 17.5526 20.5733L22.2335 12.4609C22.417 12.1844 22.417 11.8156 22.2335 11.5391L17.5526 3.42651C17.3691 3.14995 17.002 2.96558 16.7266 2.96558Z" stroke="#2B3674" stroke-width="1.25" stroke-miterlimit="10" stroke-linecap="round" stroke-linejoin="round"/>
</svg>
