<svg width="24" height="24" viewBox="0 0 24 24" fill="none" xmlns="http://www.w3.org/2000/svg">
<g clip-path="url(#clip0_114_2037)">
<path d="M11.0306 5.62536C11.153 5.76115 11.3024 5.86973 11.4694 5.94406C11.6364 6.01838 11.8172 6.05679 12 6.05679C12.1827 6.05679 12.3635 6.01838 12.5304 5.94406C12.6974 5.86973 12.847 5.76115 12.9693 5.62536L13.6 4.93336C13.7807 4.73332 14.0189 4.59412 14.282 4.53486C14.545 4.47561 14.8198 4.4992 15.0689 4.60241C15.318 4.70561 15.529 4.88337 15.673 5.11129C15.817 5.3392 15.887 5.6061 15.8733 5.87536L15.826 6.80869C15.8168 6.99076 15.8459 7.17273 15.9113 7.34288C15.9768 7.51303 16.0772 7.66758 16.206 7.79658C16.3348 7.92558 16.4892 8.02617 16.6592 8.09187C16.8293 8.15756 17.0112 8.18691 17.1933 8.17803L18.1266 8.13069C18.3957 8.11743 18.6623 8.1877 18.8899 8.33188C19.1174 8.47607 19.2949 8.6871 19.3978 8.93607C19.5008 9.18503 19.5242 9.45974 19.4649 9.72255C19.4056 9.98535 19.2665 10.2234 19.0666 10.404L18.372 11.0307C18.2363 11.1532 18.1279 11.3028 18.0537 11.4698C17.9795 11.6369 17.9412 11.8176 17.9412 12.0003C17.9412 12.1831 17.9795 12.3639 18.0537 12.5309C18.1279 12.6979 18.2363 12.8475 18.372 12.97L19.0666 13.5967C19.2666 13.7775 19.4058 14.0157 19.4651 14.2787C19.5244 14.5417 19.5008 14.8166 19.3976 15.0657C19.2944 15.3147 19.1166 15.5257 18.8887 15.6697C18.6608 15.8138 18.3939 15.8837 18.1246 15.87L17.1913 15.8227C17.0088 15.8133 16.8264 15.8423 16.6558 15.9079C16.4853 15.9735 16.3304 16.0741 16.2012 16.2033C16.072 16.3325 15.9714 16.4874 15.9058 16.6579C15.8402 16.8285 15.8112 17.0109 15.8206 17.1933L15.868 18.1267C15.8799 18.3946 15.809 18.6597 15.6651 18.8859C15.5212 19.1122 15.311 19.2886 15.0633 19.3913C14.8156 19.494 14.5422 19.5179 14.2804 19.4598C14.0186 19.4017 13.781 19.2645 13.6 19.0667L12.9726 18.3727C12.8502 18.2371 12.7006 18.1287 12.5336 18.0545C12.3667 17.9803 12.186 17.9419 12.0033 17.9419C11.8206 17.9419 11.6399 17.9803 11.4729 18.0545C11.306 18.1287 11.1564 18.2371 11.034 18.3727L10.4039 19.0667C10.2232 19.2654 9.98547 19.4035 9.72331 19.4623C9.46115 19.5209 9.18725 19.4974 8.93897 19.3947C8.69069 19.2921 8.48011 19.1154 8.33593 18.8887C8.19174 18.6621 8.12098 18.3964 8.13328 18.128L8.18128 17.1947C8.19067 17.0122 8.16164 16.8298 8.09608 16.6593C8.03051 16.4887 7.92988 16.3338 7.80068 16.2046C7.67148 16.0754 7.51659 15.9748 7.34605 15.9092C7.1755 15.8437 6.99309 15.8147 6.81061 15.824L5.87728 15.8713C5.60813 15.8854 5.34124 15.8158 5.11324 15.6721C4.88523 15.5284 4.7073 15.3177 4.60387 15.0688C4.50043 14.8199 4.47657 14.5451 4.53555 14.2821C4.59453 14.0191 4.73347 13.7809 4.93328 13.6L5.62728 12.9733C5.76291 12.8509 5.87133 12.7013 5.94554 12.5342C6.01975 12.3672 6.05809 12.1865 6.05809 12.0037C6.05809 11.8209 6.01975 11.6402 5.94554 11.4731C5.87133 11.3061 5.76291 11.1565 5.62728 11.034L4.93328 10.404C4.73411 10.2234 4.5956 9.98559 4.53668 9.72323C4.47776 9.46086 4.5013 9.1867 4.60409 8.93822C4.70689 8.68974 4.88391 8.47907 5.11096 8.33501C5.33801 8.19095 5.60402 8.12052 5.87261 8.13336L6.80595 8.18069C6.98877 8.1903 7.17156 8.16135 7.34247 8.09571C7.51337 8.03008 7.66855 7.92923 7.79794 7.79972C7.92733 7.67021 8.02803 7.51492 8.09349 7.34396C8.15896 7.17299 8.18773 6.99017 8.17795 6.80736L8.13328 5.87335C8.12069 5.60487 8.19123 5.33903 8.33531 5.11212C8.47938 4.88521 8.68996 4.70827 8.93831 4.60547C9.18665 4.50266 9.46067 4.47898 9.72297 4.53766C9.98527 4.59634 10.2231 4.73453 10.4039 4.93336L11.0306 5.62536Z" stroke="#2B3674" stroke-width="1.25" stroke-linecap="round" stroke-linejoin="round"/>
<path d="M9 12.0007C9 12.7964 9.31607 13.5594 9.87868 14.122C10.4413 14.6846 11.2043 15.0007 12 15.0007C12.7957 15.0007 13.5587 14.6846 14.1213 14.122C14.6839 13.5594 15 12.7964 15 12.0007C15 11.205 14.6839 10.442 14.1213 9.87935C13.5587 9.31674 12.7957 9.00067 12 9.00067C11.2043 9.00067 10.4413 9.31674 9.87868 9.87935C9.31607 10.442 9 11.205 9 12.0007Z" stroke="#2B3674" stroke-width="1.25" stroke-linecap="round" stroke-linejoin="round"/>
</g>
<defs>
<clipPath id="clip0_114_2037">
<rect width="16" height="16" fill="white" transform="translate(4 4)"/>
</clipPath>
</defs>
</svg>
