<svg width="16" height="17" viewBox="0 0 16 17" fill="none" xmlns="http://www.w3.org/2000/svg">
<g clip-path="url(#clip0_114_1433)">
<path d="M11.6533 8.30321L12.601 10.8654H14.4448C14.5378 10.8618 14.6296 10.8869 14.7077 10.9374C14.7859 10.988 14.8465 11.0614 14.8814 11.1477C14.9162 11.2339 14.9235 11.3289 14.9024 11.4195C14.8812 11.5101 14.8326 11.592 14.7631 11.6539L13.1652 12.7092L14.052 14.7453C14.0908 14.8385 14.0993 14.9416 14.0764 15.0399C14.0535 15.1382 14.0004 15.2269 13.9245 15.2935C13.8487 15.3602 13.7538 15.4013 13.6533 15.4112C13.5528 15.4211 13.4518 15.3993 13.3643 15.3488L11.2213 14.1436L9.07884 15.3488C8.99144 15.3995 8.89028 15.4215 8.78968 15.4117C8.68901 15.4019 8.59405 15.3608 8.51803 15.2942C8.44201 15.2275 8.38884 15.1387 8.36592 15.0402C8.34306 14.9418 8.35166 14.8386 8.3905 14.7453L9.27612 12.7092L7.6782 11.6539C7.60851 11.5922 7.55959 11.5104 7.5382 11.4198C7.51681 11.3292 7.52394 11.2342 7.55873 11.1478C7.59345 11.0615 7.65405 10.9879 7.73222 10.9374C7.8104 10.8868 7.90234 10.8617 7.99533 10.8654H9.83908L10.788 8.30321C10.8302 8.22516 10.8926 8.15996 10.9687 8.11448C11.045 8.06906 11.132 8.04509 11.2207 8.04509C11.3094 8.04509 11.3964 8.06906 11.4726 8.11448C11.5488 8.15996 11.6112 8.22516 11.6533 8.30321Z" stroke="#2B3674" stroke-width="1.25" stroke-linecap="round" stroke-linejoin="round"/>
<path d="M5.69531 12.6484H2.00781C1.76332 12.6484 1.52883 12.5513 1.35595 12.3785C1.18306 12.2056 1.08594 11.971 1.08594 11.7266V5.27344C1.08594 5.02894 1.18306 4.79446 1.35595 4.62157C1.52883 4.44869 1.76332 4.35156 2.00781 4.35156H11.2266C11.471 4.35156 11.7056 4.44869 11.8785 4.62157C12.0513 4.79446 12.1484 5.02894 12.1484 5.27344V6.19531" stroke="#2B3674" stroke-width="1.25" stroke-linecap="round" stroke-linejoin="round"/>
<path d="M11.8509 4.59555L10.1171 1.99648C10.0331 1.87046 9.91937 1.76708 9.78594 1.69548C9.65245 1.62387 9.50342 1.58625 9.35198 1.58594H3.8822C3.73044 1.58595 3.58102 1.62343 3.44723 1.69504C3.31342 1.76666 3.19937 1.8702 3.1152 1.99648L1.3833 4.59555" stroke="#2B3674" stroke-width="1.25" stroke-linecap="round" stroke-linejoin="round"/>
<path d="M6.61719 1.58594V4.35156" stroke="#2B3674" stroke-width="1.25" stroke-linecap="round" stroke-linejoin="round"/>
</g>
<defs>
<clipPath id="clip0_114_1433">
<rect width="16" height="16" fill="white" transform="translate(0 0.5)"/>
</clipPath>
</defs>
</svg>
