<svg width="16" height="17" viewBox="0 0 16 17" fill="none" xmlns="http://www.w3.org/2000/svg">
<g clip-path="url(#clip0_114_1462)">
<path d="M11.6605 8.30346L12.6094 10.8048H14.4494C14.5424 10.8012 14.6342 10.8263 14.7124 10.8768C14.7905 10.9274 14.8512 11.0008 14.886 11.0871C14.9208 11.1734 14.9282 11.2683 14.907 11.3589C14.8859 11.4496 14.8372 11.5314 14.7678 11.5933L13.1699 12.7088L14.0549 14.7455C14.0937 14.8387 14.1024 14.9416 14.0796 15.04C14.0569 15.1382 14.0039 15.227 13.9282 15.2936C13.8524 15.3602 13.7576 15.4014 13.6572 15.4114C13.5568 15.4213 13.4558 15.3995 13.3684 15.349L11.2266 14.1438L9.08781 15.349C9.00042 15.3995 8.89944 15.4213 8.79902 15.4114C8.6986 15.4014 8.60383 15.3602 8.52805 15.2936C8.45227 15.227 8.3993 15.1382 8.37656 15.04C8.35382 14.9416 8.36248 14.8387 8.40133 14.7455L9.28632 12.7088L7.68841 11.5933C7.61878 11.5317 7.56992 11.4501 7.54853 11.3595C7.52708 11.2691 7.53415 11.1742 7.56875 11.0879C7.60329 11.0015 7.6637 10.928 7.74169 10.8773C7.81968 10.8267 7.91138 10.8014 8.0043 10.8048H9.84805L10.7951 8.30346C10.8364 8.22436 10.8985 8.15811 10.9748 8.11189C11.0511 8.06561 11.1386 8.04115 11.2278 8.04115C11.317 8.04115 11.4045 8.06561 11.4808 8.11189C11.5571 8.15811 11.6192 8.22436 11.6605 8.30346Z" stroke="#2B3674" stroke-width="1.25" stroke-linecap="round" stroke-linejoin="round"/>
<path d="M5.46482 11.7266H3.27629C3.07668 11.7229 2.88415 11.652 2.72988 11.5253C2.57561 11.3986 2.46865 11.2235 2.42632 11.0284L1.11234 5.49715C1.07716 5.36467 1.07229 5.22598 1.09809 5.09137C1.1239 4.95676 1.17971 4.82969 1.26138 4.71961C1.34304 4.60954 1.44847 4.51929 1.56982 4.45557C1.69117 4.39185 1.82532 4.3563 1.96231 4.35156H13.1158C13.2527 4.35641 13.3868 4.39204 13.5081 4.45579C13.6294 4.51955 13.7348 4.60979 13.8164 4.71983C13.8981 4.82988 13.9539 4.9569 13.9797 5.09146C14.0056 5.22602 14.0008 5.36468 13.9657 5.49715L13.7814 6.26906" stroke="#2B3674" stroke-width="1.25" stroke-linecap="round" stroke-linejoin="round"/>
<path d="M2.92969 4.35156L5.69531 1.58594" stroke="#2B3674" stroke-width="1.25" stroke-linecap="round" stroke-linejoin="round"/>
<path d="M12.1484 4.35154L9.38281 1.58714" stroke="#2B3674" stroke-width="1.25" stroke-linecap="round" stroke-linejoin="round"/>
</g>
<defs>
<clipPath id="clip0_114_1462">
<rect width="16" height="16" fill="white" transform="translate(0 0.5)"/>
</clipPath>
</defs>
</svg>
