<svg width="16" height="17" viewBox="0 0 16 17" fill="none" xmlns="http://www.w3.org/2000/svg">
<path d="M1.2395 12.2656L7.99992 14.1093" stroke="#2B3674" stroke-width="1.25" stroke-linecap="round" stroke-linejoin="round"/>
<path d="M8 14.1093L14.7604 12.2656" stroke="#2B3674" stroke-width="1.25" stroke-linecap="round" stroke-linejoin="round"/>
<path d="M1.2395 12.2656L4.61541 11.3812" stroke="#2B3674" stroke-width="1.25" stroke-linecap="round" stroke-linejoin="round"/>
<path d="M1.2395 15.0687V12.3424" stroke="#2B3674" stroke-width="1.25" stroke-linecap="round" stroke-linejoin="round"/>
<path d="M14.7605 12.3424V15.0687" stroke="#2B3674" stroke-width="1.25" stroke-linecap="round" stroke-linejoin="round"/>
<path d="M8 15.376V14.1093" stroke="#2B3674" stroke-width="1.25" stroke-linecap="round" stroke-linejoin="round"/>
<path d="M10.151 4.85062C10.151 6.0386 9.79266 9.15269 7.99992 9.15269C6.20718 9.15269 5.84888 6.04168 5.84888 4.85062C5.84888 2.69957 7.99992 1.62405 7.99992 1.62405C7.99992 1.62405 10.151 2.69957 10.151 4.85062Z" stroke="#2B3674" stroke-width="1.25" stroke-linecap="round" stroke-linejoin="round"/>
<path d="M7.99992 4.77379C7.83023 4.77379 7.69263 4.63621 7.69263 4.4665C7.69263 4.29679 7.83023 4.15921 7.99992 4.15921" stroke="#2B3674" stroke-width="1.25"/>
<path d="M8 4.77379C8.16969 4.77379 8.30729 4.63621 8.30729 4.4665C8.30729 4.29679 8.16969 4.15921 8 4.15921" stroke="#2B3674" stroke-width="1.25"/>
<path d="M6.7771 12.1144V11.4949C6.82639 11.2016 6.97948 10.9358 7.20848 10.746C7.43747 10.5562 7.72706 10.455 8.0244 10.461C8.32179 10.467 8.60708 10.5797 8.82827 10.7785C9.04946 10.9773 9.1918 11.249 9.22929 11.5441V12.1144" stroke="#2B3674" stroke-width="1.25" stroke-linecap="round" stroke-linejoin="round"/>
<path d="M6.57593 8.59902L6.07934 8.84792C5.79857 8.99696 5.54136 9.18662 5.31603 9.41088C5.26209 9.46872 5.19227 9.50934 5.11533 9.52765C5.03839 9.54591 4.95775 9.54105 4.88355 9.5137C4.80936 9.48629 4.7449 9.43762 4.69829 9.37376C4.65168 9.30985 4.62498 9.23358 4.62155 9.1546C4.56887 8.69409 4.66696 8.22885 4.90111 7.82882C5.13526 7.42879 5.49283 7.1155 5.92017 6.93594" stroke="#2B3674" stroke-width="1.25" stroke-linecap="round" stroke-linejoin="round"/>
<path d="M9.42407 8.59902L9.92066 8.84792C10.2015 8.99696 10.4587 9.18662 10.684 9.41088C10.7379 9.46872 10.8077 9.50934 10.8847 9.52765C10.9616 9.54591 11.0423 9.54105 11.1165 9.5137C11.1906 9.48629 11.2551 9.43762 11.3017 9.37376C11.3483 9.30985 11.375 9.23358 11.3784 9.1546C11.4311 8.69409 11.333 8.22885 11.0989 7.82882C10.8647 7.42879 10.5072 7.1155 10.0798 6.93594" stroke="#2B3674" stroke-width="1.25" stroke-linecap="round" stroke-linejoin="round"/>
<path d="M14.7604 12.2656L11.3845 11.3812" stroke="#2B3674" stroke-width="1.25" stroke-linecap="round" stroke-linejoin="round"/>
</svg>
